<svg width="36" height="36" viewBox="0 0 36 36" fill="none" xmlns="http://www.w3.org/2000/svg">
<rect x="0.738403" y="0.481911" width="35" height="34.8289" rx="8" fill="#10A37F"/>
<path d="M24.8009 18.0476C24.8036 19.0851 24.56 20.1085 24.0899 21.0346C23.5326 22.1444 22.6758 23.0778 21.6155 23.7303C20.5551 24.3828 19.3332 24.7287 18.0865 24.7291C17.0439 24.7319 16.0154 24.4894 15.0848 24.0217L10.5822 25.5152L12.083 21.0346C11.613 20.1085 11.3694 19.0851 11.3721 18.0476C11.3726 16.807 11.7201 15.591 12.3759 14.5358C13.0316 13.4807 13.9696 12.6281 15.0848 12.0734C16.0154 11.6057 17.0439 11.3633 18.0865 11.366H18.4814C20.1279 11.4564 21.6831 12.1479 22.8491 13.3082C24.0151 14.4686 24.71 16.0161 24.8009 17.6545V18.0476Z" stroke="#EEEEEE" stroke-width="1.2" stroke-linecap="round" stroke-linejoin="round"/>
</svg>
