<svg width="35" height="39" viewBox="0 0 35 39" fill="none" xmlns="http://www.w3.org/2000/svg">
<rect x="35" width="32.3624" height="35" rx="12" transform="rotate(90 35 0)" fill="#E2E2E2"/>
<g opacity="0.3" filter="url(#filter0_f_94_1748)">
<path d="M6.5625 19.7015H28.4375V27.0001C28.4375 31.4184 24.8558 35.0001 20.4375 35.0001H14.5625C10.1442 35.0001 6.5625 31.4184 6.5625 27.0001V19.7015Z" fill="url(#paint0_linear_94_1748)"/>
</g>
<g clip-path="url(#clip0_94_1748)">
<rect x="29" y="15" width="14" height="22" rx="7" transform="rotate(90 29 15)" fill="white"/>
<path d="M13.2333 22.5385C13.2333 22.4242 13.1615 22.3147 13.0338 22.2339C12.9061 22.1531 12.7329 22.1077 12.5523 22.1077L11.8714 22.1077C11.6908 22.1077 11.5176 22.1531 11.3899 22.2339C11.2622 22.3147 11.1904 22.4242 11.1904 22.5385C11.1904 22.6527 11.2622 22.7623 11.3899 22.8431C11.5176 22.9239 11.6908 22.9692 11.8714 22.9692L12.5523 22.9692C12.7329 22.9692 12.9061 22.9239 13.0338 22.8431C13.1615 22.7623 13.2333 22.6527 13.2333 22.5385ZM13.6691 24.6923L13.1856 24.9982C13.0588 25.0789 12.9876 25.188 12.9876 25.3019C12.9876 25.4157 13.0588 25.5248 13.1856 25.6055C13.3132 25.6858 13.4858 25.7308 13.6657 25.7308C13.8456 25.7308 14.0182 25.6858 14.1458 25.6055L14.6292 25.2997C14.7408 25.2173 14.7991 25.1113 14.7925 25.0029C14.7859 24.8945 14.7148 24.7916 14.5935 24.7149C14.4723 24.6382 14.3097 24.5932 14.1383 24.5891C13.9669 24.5849 13.7994 24.6217 13.6691 24.6923ZM18 19.5231C18.1806 19.5231 18.3538 19.4777 18.4815 19.3969C18.6092 19.3161 18.6809 19.2066 18.6809 19.0923L18.6809 18.6615C18.6809 18.5473 18.6092 18.4377 18.4815 18.3569C18.3538 18.2762 18.1806 18.2308 18 18.2308C17.8194 18.2308 17.6462 18.2762 17.5184 18.3569C17.3907 18.4377 17.319 18.5473 17.319 18.6615L17.319 19.0923C17.319 19.2066 17.3907 19.3161 17.5184 19.3969C17.6462 19.4777 17.8194 19.5231 18 19.5231ZM21.8541 20.5311C22.0328 20.5306 22.204 20.4857 22.3308 20.4062L22.8143 20.1003C22.8856 20.0617 22.9435 20.0142 22.9843 19.9607C23.0252 19.9073 23.0482 19.8491 23.0518 19.7898C23.0554 19.7304 23.0396 19.6713 23.0054 19.616C22.9712 19.5607 22.9192 19.5105 22.8529 19.4685C22.7865 19.4265 22.7071 19.3937 22.6198 19.372C22.5324 19.3504 22.4389 19.3404 22.3451 19.3427C22.2513 19.345 22.1593 19.3595 22.0748 19.3854C21.9903 19.4112 21.9152 19.4478 21.8541 19.4929L21.4047 19.7988C21.2779 19.8795 21.2067 19.9887 21.2067 20.1025C21.2067 20.2163 21.2779 20.3254 21.4047 20.4062C21.5248 20.4817 21.685 20.5262 21.8541 20.5311ZM13.6827 20.4062C13.8095 20.4857 13.9807 20.5306 14.1594 20.5311C14.249 20.5314 14.3378 20.5205 14.4208 20.4991C14.5038 20.4777 14.5792 20.4461 14.6429 20.4062C14.7697 20.3254 14.8409 20.2163 14.8409 20.1025C14.8409 19.9887 14.7697 19.8795 14.6429 19.7988L14.1594 19.4929C14.0963 19.4525 14.0213 19.4203 13.9386 19.3982C13.8559 19.3761 13.7671 19.3645 13.6773 19.3641C13.5875 19.3637 13.4985 19.3745 13.4153 19.3958C13.3321 19.4172 13.2564 19.4487 13.1924 19.4886C13.1285 19.5285 13.0776 19.576 13.0427 19.6283C13.0077 19.6806 12.9894 19.7368 12.9888 19.7936C12.9875 19.9083 13.0583 20.0186 13.1856 20.1003L13.6827 20.4062ZM24.1285 22.1077L23.4476 22.1077C23.267 22.1077 23.0938 22.1531 22.9661 22.2339C22.8384 22.3147 22.7666 22.4242 22.7666 22.5385C22.7666 22.6527 22.8384 22.7623 22.9661 22.8431C23.0938 22.9239 23.267 22.9692 23.4476 22.9692L24.1285 22.9692C24.3091 22.9692 24.4823 22.9239 24.61 22.8431C24.7377 22.7623 24.8095 22.6527 24.8095 22.5385C24.8095 22.4242 24.7377 22.3147 24.61 22.2339C24.4823 22.1531 24.3091 22.1077 24.1285 22.1077ZM22.3308 24.6923C22.2014 24.6468 22.0521 24.6292 21.9055 24.6421C21.7589 24.6551 21.623 24.6979 21.5183 24.7642C21.4136 24.8304 21.3459 24.9164 21.3254 25.0091C21.3049 25.1019 21.3328 25.1963 21.4047 25.2782L21.8882 25.584C22.0158 25.6642 22.1884 25.7093 22.3683 25.7093C22.5482 25.7093 22.7207 25.6642 22.8483 25.584C22.9752 25.5033 23.0464 25.3941 23.0464 25.2803C23.0464 25.1665 22.9752 25.0573 22.8483 24.9766L22.3308 24.6923ZM18 20.1692C17.2592 20.1692 16.5351 20.3082 15.9192 20.5685C15.3033 20.8289 14.8233 21.1989 14.5398 21.6318C14.2563 22.0647 14.1822 22.5411 14.3267 23.0007C14.4712 23.4603 14.8279 23.8824 15.3517 24.2138C15.8755 24.5451 16.5428 24.7708 17.2693 24.8622C17.9958 24.9536 18.7488 24.9067 19.4332 24.7273C20.1175 24.548 20.7025 24.2444 21.114 23.8547C21.5255 23.4651 21.7452 23.0071 21.7452 22.5385C21.7434 21.9105 21.3482 21.3085 20.6462 20.8644C19.9443 20.4204 18.9927 20.1704 18 20.1692ZM18 24.0462C17.5286 24.0462 17.0678 23.9577 16.6758 23.7921C16.2839 23.6264 15.9784 23.3909 15.798 23.1154C15.6177 22.8399 15.5705 22.5368 15.6624 22.2443C15.7544 21.9519 15.9814 21.6832 16.3147 21.4724C16.648 21.2615 17.0727 21.1179 17.535 21.0597C17.9973 21.0016 18.4765 21.0314 18.912 21.1455C19.3475 21.2597 19.7197 21.4529 19.9816 21.7008C20.2435 21.9488 20.3833 22.2403 20.3833 22.5385C20.3833 22.9383 20.1322 23.3218 19.6852 23.6046C19.2383 23.8873 18.6321 24.0462 18 24.0462ZM18 25.5539C17.8194 25.5539 17.6462 25.5992 17.5184 25.68C17.3907 25.7608 17.319 25.8704 17.319 25.9846L17.319 26.4154C17.319 26.5296 17.3907 26.6392 17.5184 26.72C17.6462 26.8008 17.8194 26.8462 18 26.8462C18.1806 26.8462 18.3538 26.8008 18.4815 26.72C18.6092 26.6392 18.6809 26.5296 18.6809 26.4154L18.6809 25.9846C18.6809 25.8704 18.6092 25.7608 18.4815 25.68C18.3538 25.5992 18.1806 25.5539 18 25.5539Z" fill="#282A2E"/>
</g>
<path d="M21.5965 8.99946C20.293 9.01238 19.0351 8.65084 18.096 7.99335C17.1568 7.33586 16.6122 6.4355 16.5805 5.48777C16.5807 5.02275 16.7105 4.56259 16.9619 4.13502C17.2134 3.70746 17.5813 3.32136 18.0435 3C16.6733 3.09838 15.4011 3.56083 14.4705 4.29881C13.5399 5.03678 13.0164 5.99843 13 6.99964C13.0332 8.08206 13.655 9.11079 14.7292 9.86047C15.8034 10.6101 17.2424 11.0197 18.731 10.9993C19.8395 11.0063 20.9271 10.7796 21.8622 10.3466C22.7973 9.91365 23.5398 9.29291 24 8.55949C23.2605 8.84722 22.4351 8.99831 21.5965 8.99946Z" fill="#282A2E"/>
<defs>
<filter id="filter0_f_94_1748" x="2.5625" y="15.7015" width="29.875" height="23.2986" filterUnits="userSpaceOnUse" color-interpolation-filters="sRGB">
<feFlood flood-opacity="0" result="BackgroundImageFix"/>
<feBlend mode="normal" in="SourceGraphic" in2="BackgroundImageFix" result="shape"/>
<feGaussianBlur stdDeviation="2" result="effect1_foregroundBlur_94_1748"/>
</filter>
<linearGradient id="paint0_linear_94_1748" x1="17.5" y1="23.5261" x2="17.5" y2="35.0001" gradientUnits="userSpaceOnUse">
<stop offset="0.318305" stop-color="#1E1F22"/>
<stop offset="0.775231" stop-color="#1E1F22" stop-opacity="0.37"/>
<stop offset="1" stop-color="#1E1F22" stop-opacity="0"/>
</linearGradient>
<clipPath id="clip0_94_1748">
<rect x="29" y="15" width="14" height="22" rx="7" transform="rotate(90 29 15)" fill="white"/>
</clipPath>
</defs>
</svg>
