<svg width="35" height="36" viewBox="0 0 35 36" fill="none" xmlns="http://www.w3.org/2000/svg">
<rect y="0.905182" width="35" height="34.8289" rx="8" fill="#F9F9F9"/>
<g clip-path="url(#clip0_94_1779)">
<path d="M16.9586 30.9309C23.6419 30.9309 29.0798 25.5737 29.0798 18.9896C29.0798 12.4054 23.6419 7.04823 16.9586 7.04823C10.2753 7.04823 4.8374 12.4054 4.8374 18.9896C4.8374 25.5737 10.2753 30.9309 16.9586 30.9309Z" fill="#10A37F" fill-opacity="0.3"/>
<path d="M21.2857 25.783C21.1603 25.783 21.0372 25.7508 20.9286 25.6896L17 23.4801L13.0714 25.6896C12.9628 25.7508 12.8397 25.783 12.7143 25.783C12.5889 25.783 12.4657 25.7508 12.3572 25.6897C12.2486 25.6285 12.1584 25.5406 12.0957 25.4347C12.033 25.3288 12 25.2087 12 25.0864V13.9412C12.0006 13.3871 12.2265 12.8559 12.6283 12.4641C13.03 12.0723 13.5747 11.852 14.1429 11.8514H19.8571C20.4253 11.852 20.97 12.0723 21.3717 12.4641C21.7735 12.8559 21.9994 13.3871 22 13.9412V25.0864C22 25.2712 21.9247 25.4483 21.7908 25.579C21.6568 25.7096 21.4752 25.783 21.2857 25.783Z" fill="#10A37F" fill-opacity="0.91"/>
</g>
<defs>
<clipPath id="clip0_94_1779">
<rect width="25" height="23.8827" fill="white" transform="translate(4.2616 6.87585)"/>
</clipPath>
</defs>
</svg>
