<svg xmlns="http://www.w3.org/2000/svg" xmlns:xlink="http://www.w3.org/1999/xlink" viewBox="0 0 500 500" width="500" height="500" preserveAspectRatio="xMidYMid meet" style="width: 100%; height: 100%; transform: translate3d(0px, 0px, 0px); content-visibility: visible;"><defs><clipPath id="__lottie_element_10"><rect width="500" height="500" x="0" y="0"/></clipPath><clipPath id="__lottie_element_12"><path d="M0,0 L500,0 L500,500 L0,500z"/></clipPath></defs><g clip-path="url(#__lottie_element_10)"><g clip-path="url(#__lottie_element_12)" transform="matrix(1,0,0,1,0,0)" opacity="1" style="display: block;"><g class="primary design" style="display: none;"><g><path stroke-linecap="round" stroke-linejoin="round" fill-opacity="0" class="primary"/></g><g><path stroke-linecap="round" stroke-linejoin="round" fill-opacity="0" class="primary"/></g></g><g class="primary design" transform="matrix(1,0,0,1,0,0)" opacity="1" style="display: block;"><g opacity="1" transform="matrix(1,0,0,1,197.24200439453125,250)"><path class="primary" fill="rgb(18,19,49)" fill-opacity="1" d=" M-49.32500076293945,-187.5 C-49.32500076293945,-187.5 134.00799560546875,-187.5 136.09100341796875,-187.5 C136.09100341796875,-187.5 136.09100341796875,41.66699981689453 136.09100341796875,41.66699981689453 C136.09100341796875,41.66699981689453 136.09100341796875,41.66699981689453 136.09100341796875,41.66699981689453 C136.09100341796875,41.66699981689453 114.69999694824219,78.25499725341797 104.00499725341797,96.55000305175781 C88.31099700927734,123.39399719238281 56.92499923706055,177.08299255371094 56.92499923706055,177.08299255371094 C52.757999420166016,183.33299255371094 46.507999420166016,187.5 38.17499923706055,187.5 C19.424999237060547,187.5 0.675000011920929,179.16700744628906 -11.824999809265137,162.5 C-24.325000762939453,147.91700744628906 -28.492000579833984,127.08300018310547 -22.242000579833984,108.33300018310547 C-22.242000579833984,108.33300018310547 2.757999897003174,41.66699981689453 2.757999897003174,41.66699981689453 C2.757999897003174,41.66699981689453 -76.40899658203125,41.66699981689453 -76.40899658203125,41.66699981689453 C-99.32599639892578,41.66699981689453 -115.99199676513672,35.41699981689453 -126.40899658203125,22.91699981689453 C-132.65899658203125,14.583999633789062 -138.90899658203125,2.0829999446868896 -134.74200439453125,-16.66699981689453 C-134.74200439453125,-16.66699981689453 -109.74199676513672,-137.5 -109.74199676513672,-137.5 C-103.49199676513672,-166.66700744628906 -78.49199676513672,-187.5 -49.32500076293945,-187.5z"/></g><g opacity="1" transform="matrix(1,0,0,1,406.25,177.08299255371094)"><path class="primary" fill="rgb(18,19,49)" fill-opacity="1" d=" M31.25,-93.75 C31.25,-93.75 31.25,93.75 31.25,93.75 C31.25,106.25 20.833999633789062,114.58300018310547 10.416999816894531,114.58300018310547 C10.416999816894531,114.58300018310547 -31.25,114.58300018310547 -31.25,114.58300018310547 C-31.25,114.58300018310547 -31.25,-114.58300018310547 -31.25,-114.58300018310547 C-31.25,-114.58300018310547 10.416999816894531,-114.58300018310547 10.416999816894531,-114.58300018310547 C20.833999633789062,-114.58300018310547 31.25,-104.16699981689453 31.25,-93.75z"/></g></g></g></g></svg>