<svg xmlns="http://www.w3.org/2000/svg" xmlns:xlink="http://www.w3.org/1999/xlink" viewBox="0 0 500 500" width="500" height="500" preserveAspectRatio="xMidYMid meet" style="width: 100%; height: 100%; transform: translate3d(0px, 0px, 0px); content-visibility: visible;"><defs><clipPath id="__lottie_element_59"><rect width="500" height="500" x="0" y="0"/></clipPath><clipPath id="__lottie_element_61"><path d="M0,0 L500,0 L500,500 L0,500z"/></clipPath></defs><g clip-path="url(#__lottie_element_59)"><g clip-path="url(#__lottie_element_61)" transform="matrix(1,0,0,1,0,0)" opacity="1" style="display: block;"><g class="primary design" style="display: none;"><g><path stroke-linecap="round" stroke-linejoin="round" fill-opacity="0" class="primary"/></g><g><path stroke-linecap="round" stroke-linejoin="round" fill-opacity="0" class="primary"/></g></g><g class="primary design" transform="matrix(0.9992258548736572,0.039340823888778687,-0.039340823888778687,0.9992258548736572,304.5055236816406,257.0320129394531)" opacity="1" style="display: block;"><g opacity="1" transform="matrix(1,0,0,1,0,0)"><path class="primary" fill="rgb(18,19,49)" fill-opacity="1" d=" M134.17100524902344,17.08300018310547 C134.17100524902344,17.08300018310547 110.00399780273438,138.33299255371094 110.00399780273438,138.33299255371094 C104.37899780273438,166.875 79.1709976196289,187.5 50.2130012512207,187.5 C50.2130012512207,187.5 -133.53700256347656,187.5 -135.41200256347656,187.5 C-135.41200256347656,187.5 -135.41200256347656,-41.66699981689453 -135.41200256347656,-41.66699981689453 C-135.41200256347656,-41.66699981689453 -135.20399475097656,-41.66699981689453 -135.20399475097656,-41.66699981689453 C-135.20399475097656,-41.66699981689453 -128.68299865722656,-52.77899932861328 -120.2490005493164,-67.15299987792969 C-110.77799987792969,-83.29299926757812 -97.88169860839844,-103.61746978759766 -89.93412780761719,-116.75588989257812 C-77.83407592773438,-136.75894165039062 -53.63465881347656,-176.765380859375 -53.63465881347656,-176.765380859375 C-49.80220031738281,-182.96351623535156 -42.8759880065918,-186.82876586914062 -35.58624267578125,-186.7314910888672 C-16.00872039794922,-186.46995544433594 1.786529541015625,-177.48257446289062 13.244169235229492,-161.9141845703125 C24.909809112548828,-146.3428955078125 28.602405548095703,-126.50423431396484 23.35342788696289,-107.82637786865234 C23.35342788696289,-107.82637786865234 -2.7039999961853027,-42.5 -2.7039999961853027,-42.5 C-2.7039999961853027,-42.5 76.25399780273438,-41.66699981689453 76.25399780273438,-41.66699981689453 C98.96199798583984,-41.66699981689453 115.83799743652344,-35.41699981689453 125.83799743652344,-23.125 C131.8800048828125,-15.833000183105469 138.12899780273438,-2.9170000553131104 134.17100524902344,17.08300018310547z"/></g></g><g class="primary design" transform="matrix(0.9992258548736572,0.039340823888778687,-0.039340823888778687,0.9992258548736572,93.46918487548828,321.69671630859375)" opacity="1" style="display: block;"><g opacity="1" transform="matrix(1,0,0,1,0,0)"><path class="primary" fill="rgb(18,19,49)" fill-opacity="1" d=" M-10.416999816894531,-114.58300018310547 C-10.416999816894531,-114.58300018310547 31.25,-114.58300018310547 31.25,-114.58300018310547 C31.25,-114.58300018310547 31.25,114.58300018310547 31.25,114.58300018310547 C31.25,114.58300018310547 -10.416999816894531,114.58300018310547 -10.416999816894531,114.58300018310547 C-21.875,114.58300018310547 -31.25,105.20800018310547 -31.25,93.75 C-31.25,93.75 -31.25,-93.75 -31.25,-93.75 C-31.25,-105.20800018310547 -21.875,-114.58300018310547 -10.416999816894531,-114.58300018310547z"/></g></g></g></g></svg>