<svg width="36" height="35" viewBox="0 0 36 35" fill="none" xmlns="http://www.w3.org/2000/svg">
<path fill-rule="evenodd" clip-rule="evenodd" d="M26.3553 0H9.95527C4.23861 0 0.655273 4.04615 0.655273 9.77402V25.226C0.655273 30.9539 4.22194 35 9.95527 35H26.3553C32.0886 35 35.6553 30.9539 35.6553 25.226V9.77402C35.6553 4.04615 32.0886 0 26.3553 0Z" fill="#EFEFEF"/>
<path d="M21.7125 20.9835L24.8115 24.0625M23.4828 16.7976C23.4828 20.0341 20.8421 22.6578 17.5847 22.6578C14.3272 22.6578 11.6865 20.0341 11.6865 16.7976C11.6865 13.5612 14.3272 10.9375 17.5847 10.9375C20.8421 10.9375 23.4828 13.5612 23.4828 16.7976Z" stroke="#1E1F22" stroke-linecap="round"/>
</svg>
