<svg width="35" height="36" viewBox="0 0 35 36" fill="none" xmlns="http://www.w3.org/2000/svg">
<rect y="0.54248" width="35" height="35" rx="8" fill="#F9F9F9"/>
<path d="M28.207 17.306L25.207 14.181C25.1141 14.0843 25.0038 14.0076 24.8824 13.9553C24.7611 13.903 24.631 13.8761 24.4996 13.8761C24.3683 13.8761 24.2382 13.9031 24.1169 13.9555C23.9956 14.008 23.8853 14.0847 23.7925 14.1815C23.6997 14.2783 23.626 14.3932 23.5758 14.5196C23.5256 14.646 23.4998 14.7815 23.4998 14.9183C23.4998 15.0552 23.5258 15.1906 23.5761 15.317C23.6264 15.4434 23.7001 15.5582 23.793 15.655L25.086 17.0008H19.5C19.2348 17.0008 18.9804 17.1105 18.7929 17.3059C18.6054 17.5012 18.5 17.7662 18.5 18.0425C18.5 18.3187 18.6054 18.5837 18.7929 18.779C18.9804 18.9744 19.2348 19.0841 19.5 19.0841H25.086L23.793 20.431C23.6975 20.5271 23.6213 20.642 23.5689 20.7691C23.5165 20.8962 23.4889 21.0329 23.4877 21.1712C23.4866 21.3095 23.5119 21.4467 23.5622 21.5747C23.6125 21.7027 23.6867 21.819 23.7806 21.9168C23.8745 22.0146 23.9862 22.092 24.109 22.1444C24.2319 22.1967 24.3636 22.2231 24.4964 22.2219C24.6292 22.2207 24.7604 22.1919 24.8824 22.1374C25.0044 22.0828 25.1148 22.0034 25.207 21.9039L28.207 18.7789C28.3 18.6822 28.3737 18.5673 28.4241 18.4408C28.4744 18.3144 28.5003 18.1788 28.5003 18.0419C28.5003 17.905 28.4744 17.7695 28.4241 17.643C28.3737 17.5166 28.3 17.4017 28.207 17.305V17.306Z" fill="#23C69E"/>
<path d="M19.5 19.0841C19.2348 19.0841 18.9804 18.9744 18.7929 18.779C18.6054 18.5837 18.5 18.3187 18.5 18.0425C18.5 17.7662 18.6054 17.5012 18.7929 17.3059C18.9804 17.1105 19.2348 17.0008 19.5 17.0008H23.5V10.7508C23.4992 9.92225 23.1829 9.12787 22.6204 8.542C22.058 7.95613 21.2954 7.62662 20.5 7.62579H12.5C11.7046 7.62662 10.942 7.95613 10.3796 8.542C9.81712 9.12787 9.50079 9.92225 9.5 10.7508V25.3341C9.50079 26.1627 9.81712 26.9571 10.3796 27.5429C10.942 28.1288 11.7046 28.4583 12.5 28.4591H20.5C21.2954 28.4583 22.058 28.1288 22.6204 27.5429C23.1829 26.9571 23.4992 26.1627 23.5 25.3341V19.0841H19.5Z" fill="#15715C" fill-opacity="0.6"/>
</svg>
