<svg width="33" height="33" viewBox="0 0 33 33" fill="none" xmlns="http://www.w3.org/2000/svg">
<rect x="0.0151367" y="0.28717" width="32" height="32" rx="6" fill="#E7E9F0"/>
<path d="M11.4444 9.66215C9.75257 10.0003 8.47819 11.2747 8.14007 12.9665C7.80194 11.2747 6.52757 10.0003 4.83569 9.66215C6.52757 9.32403 7.80194 8.04965 8.14007 6.35778C8.47819 8.04965 9.75257 9.32403 11.4444 9.66215ZM19.8944 9.41653C18.4569 8.45965 18.0713 8.45965 16.6357 9.41653C17.5926 7.97903 17.5926 7.5934 16.6357 6.15778C18.0732 7.11465 18.4588 7.11465 19.8944 6.15778C18.9376 7.5934 18.9376 7.9809 19.8944 9.41653ZM12.3944 19.4165C10.9569 18.4597 10.5713 18.4597 9.13569 19.4165C10.0926 17.979 10.0926 17.5934 9.13569 16.1578C10.5732 17.1147 10.9588 17.1147 12.3944 16.1578C11.4376 17.5934 11.4376 17.9809 12.3944 19.4165ZM23.0907 15.2378C21.8132 14.3859 21.4657 14.3859 20.1901 15.2378C21.0419 13.9603 21.0419 13.6128 20.1901 12.3372C21.4676 13.189 21.8151 13.189 23.0907 12.3372C22.2388 13.6147 22.2388 13.9597 23.0907 15.2378Z" fill="#1E1F22"/>
<path d="M13.6159 13.4457L13.1739 13.8877C12.6858 14.3758 12.6858 15.1673 13.1739 15.6554L22.8966 25.3781C23.3848 25.8663 24.1763 25.8663 24.6644 25.3781L25.1063 24.9362C25.5945 24.448 25.5945 23.6566 25.1063 23.1684L15.3836 13.4457C14.8955 12.9576 14.104 12.9576 13.6159 13.4457Z" fill="#1E1F22"/>
<path d="M13.1737 13.8877L13.6156 13.4457C13.85 13.2113 14.168 13.0796 14.4995 13.0796C14.831 13.0796 15.149 13.2113 15.3834 13.4457L16.7092 14.7715L14.4995 16.9813L13.1737 15.6554C12.9393 15.421 12.8076 15.1031 12.8076 14.7715C12.8076 14.44 12.9393 14.1221 13.1737 13.8877Z" fill="#EEEEEE"/>
</svg>
