<svg width="35" height="36" viewBox="0 0 35 36" fill="none" xmlns="http://www.w3.org/2000/svg">
<rect y="0.621704" width="34" height="35" rx="8" fill="#F9F9F9"/>
<path d="M12 19.1217C12 21.607 14.0147 23.6217 16.5 23.6217C18.9853 23.6217 21 21.607 21 19.1217C21 16.6364 18.9853 14.6217 16.5 14.6217C14.0147 14.6217 12 16.6364 12 19.1217Z" fill="#23C69E"/>
<path d="M29.0001 22.8989L29.0001 15.3286C29.0018 14.4618 28.755 13.6097 28.2844 12.8583C27.8137 12.1068 27.1359 11.4823 26.319 11.0476L19.1773 7.28033C18.3633 6.84885 17.44 6.6217 16.5001 6.6217C15.5602 6.6217 14.6369 6.84885 13.8229 7.28033L6.68116 11.0619C5.86428 11.4966 5.18644 12.121 4.71581 12.8725C4.24518 13.624 3.99833 14.476 4.00009 15.3429L4.00009 22.8989C3.99675 23.766 4.24292 24.6186 4.71372 25.3703C5.18451 26.1221 5.86321 26.7463 6.68116 27.1799L13.8229 30.9685C14.6381 31.3966 15.561 31.6217 16.5001 31.6217C17.4392 31.6217 18.362 31.3966 19.1773 30.9685L26.319 27.1585C27.137 26.7249 27.8157 26.1007 28.2865 25.3489C28.7572 24.5972 29.0034 23.7446 29.0001 22.8775L29.0001 22.8989Z" fill="#10A37F" fill-opacity="0.3"/>
</svg>
