<svg width="13" height="13" viewBox="0 0 13 13" fill="none" xmlns="http://www.w3.org/2000/svg">
<path d="M12.2566 5.98433C12.2588 6.86939 12.0543 7.74248 11.6595 8.53248C11.1915 9.47915 10.4719 10.2754 9.58147 10.832C8.69102 11.3887 7.66484 11.6837 6.61787 11.6841C5.7423 11.6865 4.87857 11.4797 4.09704 11.0806L0.315796 12.3547L1.57621 8.53248C1.18146 7.74248 0.976889 6.86939 0.979172 5.98433C0.979577 4.92601 1.27146 3.88871 1.82214 2.98861C2.37281 2.0885 3.16052 1.36115 4.09704 0.888022C4.87857 0.488988 5.7423 0.282204 6.61787 0.284512H6.94956C8.33226 0.361621 9.63825 0.951565 10.6175 1.94139C11.5967 2.93121 12.1803 4.25135 12.2566 5.64904V5.98433Z" fill="#14B48D"/>
</svg>
