<svg width="8" height="12" viewBox="0 0 8 12" fill="none" xmlns="http://www.w3.org/2000/svg">
<path d="M7.33363 11.3547C7.2438 11.3547 7.15555 11.3296 7.07776 11.2819L4.26315 9.55903L1.44853 11.2819C1.37074 11.3296 1.28249 11.3547 1.19266 11.3547C1.10283 11.3547 1.01458 11.3296 0.936788 11.2819C0.858993 11.2343 0.794391 11.1657 0.749474 11.0831C0.704558 11.0006 0.68091 10.9069 0.680908 10.8116V2.121C0.681315 1.68897 0.843194 1.27476 1.13102 0.969264C1.41885 0.66377 1.80911 0.491955 2.21615 0.491524H6.31014C6.71719 0.491955 7.10744 0.66377 7.39527 0.969264C7.6831 1.27476 7.84498 1.68897 7.84538 2.121V10.8116C7.84538 10.9556 7.79147 11.0938 7.6955 11.1956C7.59952 11.2975 7.46936 11.3547 7.33363 11.3547Z" fill="#3B3B3B"/>
</svg>
